<svg width="47" height="77" viewBox="0 0 47 77" fill="none" xmlns="http://www.w3.org/2000/svg">
<path d="M24 76.6C11.5 76.8 1.20002 66.8 1.00002 54.3L0.500019 23C0.300019 10.5 10.3 0.200019 22.8 1.87857e-05C35.3 -0.199981 45.6 9.80002 45.8 22.3L46.3 53.6C46.5 66 36.5 76.4 24 76.6Z" fill="#ACF27E"/>
<path d="M19.9256 17.011C20.5334 16.7469 20.7943 15.9989 20.5081 15.3404C20.222 14.6819 19.4973 14.3622 18.8895 14.6263C18.2816 14.8904 18.0208 15.6383 18.3069 16.2968C18.593 16.9553 19.3177 17.2751 19.9256 17.011Z" fill="#161616"/>
<path d="M24.0676 14.6113C24.6329 14.3889 24.8781 13.667 24.6153 12.9988C24.3524 12.3307 23.6811 11.9694 23.1157 12.1918C22.5503 12.4142 22.3051 13.1361 22.568 13.8043C22.8308 14.4724 23.5022 14.8337 24.0676 14.6113Z" fill="#161616"/>
<path d="M21.5998 22.7C22.7998 23.2 24.1998 23 25.2998 22.4C26.2998 21.8 27.0998 20.8 27.3998 19.7C27.4998 19.3 27.2998 18.8 26.7998 18.7C26.3998 18.6 25.8998 18.8 25.7998 19.3C25.7998 19.4 25.6998 19.5 25.6998 19.6C25.6998 19.5 25.6998 19.7 25.6998 19.6C25.6998 19.6 25.6998 19.7 25.5998 19.7C25.4998 19.8 25.4998 19.9 25.3998 20L25.2998 20.1C25.2998 20.1 25.1998 20.3 25.1998 20.2C25.2998 20.1 25.0998 20.3 25.0998 20.3L24.9998 20.4C24.8998 20.5 24.7998 20.6 24.7998 20.6L24.6998 20.7C24.5998 20.8 24.4998 20.8 24.3998 20.9C24.1998 21 24.0998 21 23.8998 21.1C23.7998 21.1 23.6998 21.2 23.4998 21.2C23.4998 21.2 23.2998 21.2 23.3998 21.2C23.2998 21.2 23.2998 21.2 23.1998 21.2C23.0998 21.2 22.8998 21.2 22.7998 21.2C22.6998 21.2 22.6998 21.2 22.5998 21.2C22.4998 21.2 22.5998 21.2 22.4998 21.2C22.1998 21.2 21.9998 21.1 21.7998 21C21.3998 20.9 20.8998 21.2 20.7998 21.6C20.9998 22.2 21.1998 22.6 21.5998 22.7Z" fill="black"/>
<path d="M0.800049 38.2L1.10005 54.3C1.30005 66.8 11.6 76.8 24.1 76.6C36.5 76.4 46.5 66 46.3 53.5L46 37.4L0.800049 38.2Z" fill="white"/>
</svg>
