<svg width="240" height="320" viewBox="0 0 240 320" fill="none" xmlns="http://www.w3.org/2000/svg">
<g clip-path="url(#clip0_37_1587)">
<g filter="url(#filter0_d_37_1587)">
<path d="M28.2 257.35C-3.60003 227.35 -5.10003 177.25 24.9 145.45L99.9 65.95C129.9 34.15 180 32.65 211.8 62.65C243.6 92.65 245.1 142.75 215.1 174.55L140.1 254.05C110.1 285.85 60 287.35 28.2 257.35Z" fill="#ACF27E"/>
</g>
<path d="M169.153 98.4647C169.824 96.6968 169.091 94.7787 167.515 94.1805C165.939 93.5823 164.118 94.5306 163.447 96.2985C162.775 98.0664 163.509 99.9845 165.085 100.583C166.66 101.181 168.482 100.233 169.153 98.4647Z" fill="#161616"/>
<path d="M181.102 101.638C181.819 99.9327 181.171 98.0336 179.655 97.3964C178.139 96.7592 176.329 97.6252 175.612 99.3307C174.895 101.036 175.543 102.935 177.059 103.572C178.575 104.21 180.385 103.344 181.102 101.638Z" fill="#161616"/>
<path d="M157.786 114.18C159.051 117.008 161.582 119.093 164.411 120.209C167.537 121.4 171.184 120.953 174.087 119.241C175.055 118.72 175.353 117.381 174.832 116.413C174.236 115.445 172.971 115.147 172.003 115.669C171.408 116.041 171.259 116.115 170.589 116.338C170.291 116.413 169.919 116.487 169.621 116.562C169.472 116.562 169.324 116.636 169.175 116.636C169.472 116.562 169.026 116.636 168.951 116.636C167.537 116.711 166.793 116.636 165.527 116.19C165.378 116.115 165.23 116.115 165.453 116.19C165.304 116.115 165.23 116.115 165.081 116.041C164.783 115.892 164.56 115.743 164.262 115.594C164.113 115.52 164.039 115.445 163.89 115.371C163.815 115.371 163.518 115.073 163.741 115.296C163.518 115.147 163.294 114.924 163.145 114.775C162.922 114.552 162.699 114.329 162.55 114.105C162.476 114.031 162.401 113.882 162.327 113.808C162.178 113.659 162.401 113.957 162.252 113.659C161.88 113.138 161.582 112.617 161.359 112.096C160.912 111.054 159.424 110.83 158.53 111.351C157.488 111.947 157.339 113.138 157.786 114.18Z" fill="black"/>
<path d="M63.5999 104.45L24.9999 145.35C-5.00006 177.15 -3.50006 227.25 28.2999 257.25C60.0999 287.25 110.2 285.75 140.2 253.95L178.8 213.05L63.5999 104.45Z" fill="white"/>
</g>
<defs>
<filter id="filter0_d_37_1587" x="-6.65997" y="31.0901" width="253.32" height="257.82" filterUnits="userSpaceOnUse" color-interpolation-filters="sRGB">
<feFlood flood-opacity="0" result="BackgroundImageFix"/>
<feColorMatrix in="SourceAlpha" type="matrix" values="0 0 0 0 0 0 0 0 0 0 0 0 0 0 0 0 0 0 127 0" result="hardAlpha"/>
<feOffset/>
<feGaussianBlur stdDeviation="5"/>
<feComposite in2="hardAlpha" operator="out"/>
<feColorMatrix type="matrix" values="0 0 0 0 0.275 0 0 0 0 0.6875 0 0 0 0 0.635938 0 0 0 0.6 0"/>
<feBlend mode="normal" in2="BackgroundImageFix" result="effect1_dropShadow_37_1587"/>
<feBlend mode="normal" in="SourceGraphic" in2="effect1_dropShadow_37_1587" result="shape"/>
</filter>
<clipPath id="clip0_37_1587">
<rect width="240" height="320" fill="white"/>
</clipPath>
</defs>
</svg>
