<svg width="101" height="100" viewBox="0 0 101 100" fill="none" xmlns="http://www.w3.org/2000/svg">
<path d="M77.1 90.9C76.9 91 73.4 85.1 73.2 85.2C73 85.3 76.5 91.2 76.2 91.4C76 91.5 72.5 85.6 72.3 85.7C72.1 85.8 75.6 91.7 75.3 91.9C75.1 92 71.6 86.1 71.4 86.2C71.2 86.3 74.7 92.2 74.4 92.4C74.2 92.5 70.7 86.6 70.5 86.7C70.3 86.8 73.8 92.7 73.5 92.9C70.9 94.4 65.3 89.5 62.6 90.4C59.8 91.4 58.5 98.7 55.6 99.1C52.7 99.5 49.4 92.8 46.5 92.6C43.5 92.4 39.6 98.7 36.7 98C33.8 97.3 33.4 89.8 30.8 88.5C28.2 87.2 22.1 91.5 19.7 89.7C17.4 87.9 19.8 80.9 17.8 78.7C15.9 76.5 8.60003 78.2 7.10003 75.6C5.60003 73 10.5 67.4 9.60003 64.7C8.60003 61.9 1.30003 60.6 0.900031 57.7C0.500031 54.8 7.20003 51.5 7.40003 48.6C7.60003 45.6 1.30003 41.7 2.00003 38.8C2.70003 35.9 10.2 35.5 11.5 32.9C12.8 30.3 8.50003 24.2 10.3 21.8C12.1 19.5 19.1 21.9 21.3 19.9C23.5 18 21.8 10.7 24.4 9.20001C24.6 9.10001 28.1 15 28.3 14.9C28.5 14.8 25 8.90001 25.3 8.70001C25.5 8.60001 29 14.5 29.2 14.4C29.4 14.3 25.9 8.40001 26.2 8.20001C26.4 8.10001 29.9 14 30.1 13.9C30.3 13.8 26.8 7.90001 27.1 7.70001C27.3 7.60001 30.8 13.5 31 13.4C31.2 13.3 27.7 7.40001 28 7.20001C30.6 5.70001 36.2 10.6 38.9 9.70001C41.7 8.70001 43 1.40001 45.9 1.00001C48.8 0.600006 52.1 7.30001 55 7.50001C58 7.70001 61.9 1.40001 64.8 2.10001C67.7 2.80001 68.1 10.3 70.7 11.6C73.3 12.9 79.4 8.60001 81.8 10.4C84.1 12.2 81.7 19.2 83.7 21.4C85.6 23.6 92.9 21.9 94.4 24.5C95.9 27.1 91 32.7 91.9 35.4C92.9 38.2 100.2 39.5 100.6 42.4C101 45.3 94.3 48.6 94.1 51.5C93.9 54.5 100.2 58.4 99.5 61.3C98.8 64.2 91.3 64.6 90 67.2C88.7 69.8 93 75.9 91.2 78.3C89.4 80.6 82.4 78.2 80.2 80.2C78.1 82.1 79.7 89.4 77.1 90.9Z" fill="#FFEEA3"/>
<path d="M24.5034 43.5057C25.4623 42.9575 25.7508 41.658 25.1478 40.6033C24.5447 39.5485 23.2786 39.1379 22.3197 39.686C21.3608 40.2342 21.0723 41.5337 21.6754 42.5885C22.2784 43.6432 23.5445 44.0539 24.5034 43.5057Z" fill="#161616"/>
<path d="M30.9054 38.758C31.8341 38.2694 32.1283 37.0016 31.5626 35.9263C30.9969 34.851 29.7855 34.3754 28.8568 34.864C27.9281 35.3526 27.6339 36.6203 28.1996 37.6956C28.7653 38.7709 29.9768 39.2466 30.9054 38.758Z" fill="#161616"/>
<path d="M28.2 52.7C30.3 53.2 32.6 52.9 34.4 51.7C36.1 50.6 37.3 48.8 37.6 46.8C37.7 46.1 37.4 45.3 36.7 45.2C36.1 45.1 35.2 45.4 35.1 46.1C35 46.5 34.9 46.9 34.8 47.2C34.7 47.4 34.8 47.1 34.8 47.3C34.8 47.4 34.7 47.5 34.7 47.6C34.6 47.8 34.5 47.9 34.4 48.1C34.4 48.2 34.3 48.2 34.3 48.3C34.3 48.3 34.1 48.6 34.2 48.5C34.3 48.4 34.1 48.6 34.1 48.6C34 48.7 34 48.7 33.9 48.8C33.8 48.9 33.6 49.1 33.5 49.2C33.4 49.3 33.4 49.3 33.3 49.4C33.4 49.3 33.3 49.4 33.2 49.4C33 49.5 32.9 49.6 32.7 49.7C32.6 49.8 32.5 49.8 32.4 49.8C32.3 49.8 32.1 49.9 32.3 49.8C31.9 50 31.5 50.1 31.1 50.2C30.9 50.3 31.2 50.2 31 50.2C30.9 50.2 30.8 50.2 30.7 50.2C30.5 50.2 30.3 50.2 30.1 50.2C30 50.2 29.9 50.2 29.8 50.2C29.8 50.2 29.4 50.2 29.6 50.2C29.8 50.2 29.4 50.2 29.4 50.2C29.3 50.2 29.2 50.1 29 50.1C28.3 49.9 27.5 50.3 27.4 51C27.1 51.8 27.4 52.5 28.2 52.7Z" fill="black"/>
</svg>
