<svg width="240" height="320" viewBox="0 0 240 320" fill="none" xmlns="http://www.w3.org/2000/svg">
<path d="M160.78 271.63C114.68 288.43 63.58 264.73 46.78 218.63L26.18 162.33C9.37997 116.23 33.08 65.13 79.18 48.33C125.28 31.53 176.38 55.23 193.18 101.33L213.78 157.63C230.58 203.73 206.88 254.83 160.78 271.63Z" fill="#FFEEA3"/>
<path d="M83.6193 111.011C85.4429 110.37 86.327 108.16 85.594 106.076C84.861 103.992 82.7885 102.822 80.9649 103.464C79.1413 104.105 78.2572 106.315 78.9902 108.399C79.7232 110.483 81.7957 111.652 83.6193 111.011Z" fill="#161616"/>
<path d="M96.5457 104.664C98.3905 104.087 99.3648 101.953 98.7219 99.8972C98.079 97.8415 96.0622 96.6427 94.2174 97.2197C92.3725 97.7967 91.3982 99.931 92.0411 101.987C92.684 104.042 94.7008 105.241 96.5457 104.664Z" fill="#161616"/>
<path d="M86.9799 128.53C90.7799 130.33 95.0799 130.43 98.8799 128.63C102.18 127.13 104.58 124.13 105.78 120.73C106.18 119.53 105.28 118.03 104.08 117.73C102.68 117.43 101.58 118.13 101.08 119.43C100.98 119.53 100.98 119.73 100.88 119.83C101.08 119.43 100.88 119.93 100.78 120.03C100.68 120.33 100.48 120.53 100.38 120.83C100.18 121.13 99.9799 121.43 99.7799 121.73C99.8799 121.53 99.8799 121.63 99.7799 121.83C99.6799 121.93 99.5799 122.13 99.3799 122.23C99.1799 122.53 98.8799 122.73 98.6799 122.93C98.5799 123.03 98.4799 123.13 98.3799 123.23C98.2799 123.33 98.0799 123.43 98.3799 123.33C97.8799 123.73 97.2799 124.13 96.5799 124.43C95.6799 124.83 94.2799 125.23 93.0799 125.23C91.6799 125.23 90.3799 125.03 89.2799 124.43C88.1799 123.93 86.6799 124.03 85.9799 125.33C85.5799 126.23 85.7799 127.93 86.9799 128.53Z" fill="black"/>
<path d="M31.88 177.83L46.78 218.63C63.58 264.73 114.68 288.53 160.78 271.63C206.88 254.83 230.68 203.73 213.78 157.63L198.88 116.83L31.88 177.83Z" fill="#ACF27E"/>
</svg>
